<?xml version="1.0" encoding="UTF-8"?>
<svg version="1.1" xmlns="http://www.w3.org/2000/svg" width="500" height="500">
<path d="M0 0 C165 0 330 0 500 0 C500 165 500 330 500 500 C335 500 170 500 0 500 C0 335 0 170 0 0 Z " fill="#FEFEFE" transform="translate(0,0)"/>
<path d="M0 0 C16.23057804 -0.07045997 32.46110554 -0.12316758 48.69180012 -0.15543652 C56.2300513 -0.17082587 63.76820678 -0.1917611 71.30639648 -0.22631836 C77.88597616 -0.25646637 84.46548645 -0.27563242 91.04513329 -0.28226548 C94.52059198 -0.28613535 97.99585238 -0.29505839 101.47124672 -0.31719017 C132.1097367 -0.50445389 162.59978783 1.66341667 185.96484375 23.8671875 C198.45504635 37.04066158 199.65388924 52.00471601 199.375 69.21484375 C198.87730844 82.09616769 194.75566569 92.6416447 187 103 C186.55140625 103.63035156 186.1028125 104.26070313 185.640625 104.91015625 C178.39284232 114.26832271 167.99645376 120.16510226 157 124 C156.03578125 124.35964844 155.0715625 124.71929687 154.078125 125.08984375 C150.70611229 126.08689827 147.63087467 126.41035461 144.125 126.625 C142.39636719 126.73714844 142.39636719 126.73714844 140.6328125 126.8515625 C139.76398438 126.90054688 138.89515625 126.94953125 138 127 C138.64324219 127.37769531 139.28648437 127.75539063 139.94921875 128.14453125 C157.73716887 138.97970201 171.63985716 153.97656971 184.21875 170.3984375 C187.25077018 174.35448112 190.40442293 178.20686863 193.5625 182.0625 C198.39527096 187.97845375 203.09874724 193.975698 207.734375 200.046875 C211.08910587 204.41959317 214.5348159 208.71465398 218 213 C218.68449219 213.85980469 219.36898437 214.71960938 220.07421875 215.60546875 C249.2483282 251.90287961 284.99557022 280.77583493 332.69628906 286.31298828 C337.46160441 286.72629718 342.21809338 286.92939467 347 287 C347 288.32 347 289.64 347 291 C329.2276486 298.73057437 311.93007146 303.17799409 292.5 303.1875 C291.21351563 303.19974609 289.92703125 303.21199219 288.6015625 303.22460938 C252.05417119 303.27976137 220.25935958 288.93636894 194 264 C192.56333984 262.64261719 192.56333984 262.64261719 191.09765625 261.2578125 C185.94258189 256.29847947 181.14071793 251.164883 176.73828125 245.5234375 C176.26562836 244.91892258 175.79297546 244.31440765 175.30599976 243.6915741 C170.71877805 237.75163396 166.53559009 231.57536578 162.42611694 225.29907227 C160.08754694 221.7284952 157.72726097 218.17225953 155.37109375 214.61328125 C154.86776016 213.85177765 154.36442657 213.09027405 153.84584045 212.30569458 C147.3556092 202.4951433 140.77044492 192.74847103 134.1875 183 C133.5655777 182.07899506 132.9436554 181.15799011 132.30288696 180.20907593 C129.86514097 176.59957919 127.42703531 172.99032662 124.98777771 169.3818512 C121.96741801 164.91372719 118.95064162 160.4432538 115.94044495 155.96827698 C106.86457566 142.43310616 106.86457566 142.43310616 97.375 129.1875 C96.68148437 128.25292969 95.98796875 127.31835938 95.2734375 126.35546875 C92.43334202 123.41289559 89.62158445 121.88094398 86 120 C86 118.68 86 117.36 86 116 C86.969375 115.97421875 87.93875 115.9484375 88.9375 115.921875 C103.40429489 115.37716128 116.64027055 113.02722642 129 105 C129.928125 104.401875 130.85625 103.80375 131.8125 103.1875 C141.72198975 93.27801025 145.04000094 80.45963776 145.19091797 66.8112793 C145.16790955 52.51483615 142.84597861 41.8524819 134.8125 29.6875 C122.18689038 17.62302858 108.4751964 15.39552573 91.8125 15.25 C90.17640152 15.22178302 88.54033174 15.19184779 86.90429688 15.16015625 C82.93625041 15.08697659 78.96854203 15.03699083 75 15 C75.03717221 40.80829767 75.09704128 66.61645641 75.18390274 92.42463684 C75.22370568 104.40793074 75.25609184 116.39115885 75.27099609 128.37451172 C75.28400605 138.81966119 75.3109541 149.26466597 75.35461307 159.70973396 C75.37724245 165.23992232 75.39290978 170.76993213 75.39188385 176.3001709 C75.39113813 181.5073634 75.40905414 186.71416097 75.44116783 191.9212513 C75.4496736 193.83036561 75.45141217 195.73952419 75.44580269 197.64864922 C75.43915146 200.2606104 75.45710967 202.87131915 75.48101807 205.4831543 C75.46937744 206.60964827 75.46937744 206.60964827 75.45750165 207.75889969 C75.56012597 214.11599166 77.50976776 219.52386341 82.0703125 224.05859375 C82.74835938 224.51363281 83.42640625 224.96867188 84.125 225.4375 C84.80820313 225.91058594 85.49140625 226.38367188 86.1953125 226.87109375 C89.44226805 228.90219798 91.80795727 229.25181048 95.625 229.5625 C96.62789063 229.64628906 97.63078125 229.73007812 98.6640625 229.81640625 C99.43492187 229.87699219 100.20578125 229.93757812 101 230 C101 231.32 101 232.64 101 234 C67.67 234 34.34 234 0 234 C0 232.68 0 231.36 0 230 C0.86882813 229.90203125 1.73765625 229.8040625 2.6328125 229.703125 C10.75039836 228.64983645 16.11342427 227.74474689 21.3125 221 C24.09368035 216.05567937 24.14856206 211.76552889 24.14717102 206.16986084 C24.15084771 205.37579496 24.1545244 204.58172907 24.1583125 203.76360059 C24.16933523 201.09988082 24.17319077 198.43620008 24.17700195 195.77246094 C24.18326762 193.86369198 24.18991451 191.95492424 24.19691467 190.04615784 C24.21794339 183.77557218 24.22831524 177.50498631 24.23828125 171.234375 C24.2423291 169.07508583 24.24644603 166.91579678 24.25063133 164.75650787 C24.26967956 154.61279179 24.28391196 144.46908296 24.2922433 134.32535243 C24.30201789 122.61796229 24.32834482 110.91076112 24.36874419 99.20343757 C24.39890396 90.15277437 24.41371201 81.10216535 24.41702431 72.05145288 C24.41937475 66.64647808 24.42833466 61.24170524 24.45348549 55.83678436 C24.47676898 50.7510809 24.48099824 45.66571235 24.47072411 40.57996941 C24.47022872 38.71597365 24.4765499 36.85196138 24.49028015 34.98801613 C24.50801208 32.43763578 24.50088705 29.88845574 24.48774719 27.33807373 C24.49871644 26.60537002 24.50968568 25.87266632 24.52098733 25.11775947 C24.44337946 18.85258243 22.34406041 13.75959839 18.28125 8.9765625 C12.59811209 4.66435698 7.02206383 3.6787995 0 3 C0 2.01 0 1.02 0 0 Z " fill="#010101" transform="translate(48,70)"/>
<path d="M0 0 C0.90203659 -0.00708481 1.80407318 -0.01416962 2.73344421 -0.02146912 C4.22299873 -0.01775299 4.22299873 -0.01775299 5.74264526 -0.01396179 C7.3092263 -0.02162819 7.3092263 -0.02162819 8.90745544 -0.02944946 C12.38496543 -0.04342233 15.86227836 -0.04237987 19.33981323 -0.04008484 C21.76810784 -0.04397375 24.19640177 -0.04830882 26.62469482 -0.05307007 C31.73776438 -0.0605532 36.85076497 -0.06023038 41.96383667 -0.05497742 C48.44989203 -0.04924582 54.93565592 -0.06594869 61.42166328 -0.08932209 C66.45299882 -0.10423135 71.48426746 -0.10490696 76.51562119 -0.10181236 C78.90170738 -0.1023192 81.28779797 -0.10743414 83.67386246 -0.11762428 C124.61248432 -0.27070186 160.93865991 6.66191808 191.70700073 35.26069641 C192.38762573 35.86397766 193.06825073 36.46725891 193.76950073 37.08882141 C208.43361707 50.68860673 216.55749634 70.05620623 220.70700073 89.26069641 C220.93258667 90.27261047 221.15817261 91.28452454 221.39059448 92.32710266 C226.83071223 122.30402733 222.52057756 156.41125177 205.70700073 182.26069641 C187.8198376 207.95819259 162.10206667 223.69992618 131.70700073 230.26069641 C130.72860229 230.47596985 129.75020386 230.69124329 128.74215698 230.91304016 C116.95111189 233.28510063 104.89440516 233.41033304 92.90866089 233.3742218 C91.60939163 233.37436783 90.31012238 233.37451385 88.97148132 233.37466431 C85.45794525 233.37494758 81.94444432 233.36912797 78.43091631 233.36209035 C74.74075029 233.35577748 71.05058319 233.35524681 67.3604126 233.35406494 C60.39455042 233.35097477 53.42870421 233.34279303 46.46284902 233.33271545 C38.52313714 233.32148187 30.58342443 233.31602573 22.64370656 233.31102002 C6.33146199 233.30060811 -9.98076659 233.28305415 -26.29299927 233.26069641 C-26.29299927 232.27069641 -26.29299927 231.28069641 -26.29299927 230.26069641 C-25.45768677 230.22202454 -25.45768677 230.22202454 -24.60549927 230.18257141 C-19.41126111 229.79651317 -15.56743275 228.74350692 -11.01956177 226.19819641 C-9.29299927 225.26069641 -9.29299927 225.26069641 -6.29299927 224.26069641 C-5.20868833 222.51202158 -5.20868833 222.51202158 -4.29299927 220.26069641 C-3.77737427 219.41507141 -3.26174927 218.56944641 -2.73049927 217.69819641 C-0.74925276 212.96043302 -0.55566845 208.35104393 -0.29299927 203.26069641 C0.47608765 203.63037537 0.47608765 203.63037537 1.26071167 204.00752258 C26.16821251 215.95654196 48.80749969 223.683874 76.70578003 223.5214386 C78.90372956 223.51065112 81.10087145 223.52144747 83.29879761 223.53413391 C101.84745735 223.55441235 118.46194004 218.8903437 135.40231323 211.62397766 C138.70700073 210.26069641 138.70700073 210.26069641 141.38668823 209.55366516 C143.92743897 208.78058976 145.08801275 208.38836944 146.70700073 206.26069641 C147.13917523 202.97241222 147.26402722 199.83223204 147.27999878 196.52314758 C147.40457813 190.4091235 149.15844346 187.06165836 152.79684448 182.10835266 C156.45682524 176.65206233 158.4565216 170.39961809 160.70700073 164.26069641 C161.01508667 163.48210266 161.32317261 162.70350891 161.64059448 161.90132141 C166.79013503 148.13363788 167.21773852 133.30658463 167.15304565 118.79585266 C167.1445292 115.89539086 167.17343771 112.99690341 167.20504761 110.09663391 C167.31283938 81.54574322 159.35789253 54.62613952 139.39450073 33.57319641 C134.92576708 29.2254437 130.22947076 26.11743279 124.70700073 23.26069641 C123.81883667 22.79663391 122.93067261 22.33257141 122.01559448 21.85444641 C100.16530734 11.16241401 72.15962607 15.68433085 49.70700073 15.26069641 C49.70700073 59.15069641 49.70700073 103.04069641 49.70700073 148.26069641 C40.03528262 141.00690782 32.36758978 133.31442326 24.84762573 123.90132141 C22.90883398 121.50967319 20.90491493 119.22334614 18.83200073 116.94819641 C13.94526932 111.52176575 9.50838278 105.74450533 5.04391479 99.97065735 C3.65517123 98.13262013 3.65517123 98.13262013 1.65182495 96.1368103 C-0.77767657 92.54392873 -0.83168565 89.71701877 -0.74710083 85.53291321 C-0.74768494 84.77140457 -0.74826904 84.00989594 -0.74887085 83.22531128 C-0.74609424 80.71970814 -0.71502396 78.21530928 -0.68362427 75.70991516 C-0.67616033 73.96828867 -0.67046812 72.22665377 -0.66647339 70.48501587 C-0.651229 65.9096187 -0.6119577 61.33473255 -0.56765747 56.75953674 C-0.52667886 52.08746757 -0.50845686 47.41531552 -0.48831177 42.74311829 C-0.44546211 33.58208695 -0.3772254 24.42143424 -0.29299927 15.26069641 C-6.72799927 15.75569641 -6.72799927 15.75569641 -13.29299927 16.26069641 C-12.17287135 13.96653068 -11.04717086 11.67540547 -9.91799927 9.38569641 C-9.60088989 8.73471985 -9.28378052 8.08374329 -8.95706177 7.41304016 C-5.29560148 0.01383917 -5.29560148 0.01383917 0 0 Z " fill="#010101" transform="translate(261.2929992675781,162.7393035888672)"/>
</svg>
